<svg width="17" height="17" viewBox="0 0 17 17" fill="none" xmlns="http://www.w3.org/2000/svg">
<path d="M12.2364 16.0226C10.8933 16.7314 9.52535 17 7.88877 17C3.88313 17 0.488091 14.0689 0.488091 9.37925C0.488091 4.34763 3.98137 0 9.40348 0C13.6541 0 16.5119 2.97967 16.5119 7.05869C16.5119 10.7223 14.46 12.8725 12.1643 12.8725C11.1868 12.8725 10.2839 12.2134 10.3573 10.7236H10.2591C9.40472 12.1649 8.2805 12.8725 6.81554 12.8725C5.39908 12.8725 4.17786 11.7247 4.17786 9.79461C4.17786 6.76644 6.57179 4.00564 9.96683 4.00564C11.0177 4.00564 11.9454 4.22576 12.5809 4.51801L11.7502 8.93902C11.3833 10.7957 11.6768 11.6501 12.4826 11.6749C13.7287 11.6998 15.1203 10.0384 15.1203 7.20543C15.1203 3.66365 12.995 1.12297 9.20947 1.12297C5.22746 1.12297 1.88217 4.27426 1.88217 9.23251C1.88217 13.3115 4.54472 15.8273 8.15987 15.8273C9.55271 15.8273 10.8473 15.5338 11.8484 14.973L12.2364 16.0226ZM10.8933 5.47061C10.6496 5.39723 10.2342 5.29899 9.67209 5.29899C7.52315 5.29899 5.78832 7.32606 5.78832 9.69513C5.78832 10.7696 6.32556 11.5518 7.40003 11.5518C8.8165 11.5518 10.1111 9.74487 10.3797 8.23016L10.8933 5.47061Z" fill="white" fill-opacity="0.7"/>
</svg>
