<svg width="19" height="15" viewBox="0 0 19 15" fill="none" xmlns="http://www.w3.org/2000/svg">
<path d="M1 3.78571L8.45167 8.67C8.76207 8.87362 9.12685 8.98228 9.5 8.98228C9.87315 8.98228 10.2379 8.87362 10.5483 8.67L18 3.78571L1 3.78571ZM2.88889 14H16.1111C16.6121 14 17.0925 13.8043 17.4468 13.4561C17.801 13.1078 18 12.6354 18 12.1429V2.85714C18 2.3646 17.801 1.89223 17.4468 1.54394C17.0925 1.19566 16.6121 1 16.1111 1L2.88889 1C2.38792 1 1.90748 1.19566 1.55324 1.54394C1.19901 1.89223 1 2.3646 1 2.85714L1 12.1429C1 12.6354 1.19901 13.1078 1.55324 13.4561C1.90748 13.8043 2.38792 14 2.88889 14Z" stroke="white" stroke-linecap="round" stroke-linejoin="round"/>
</svg>
