<svg width="19" height="19" viewBox="0 0 19 19" fill="none" xmlns="http://www.w3.org/2000/svg">
<path d="M6.10033 14.5997L7.80049 12.8995H9.50064L10.6567 11.7434C11.8385 12.1551 13.125 12.1535 14.3057 11.7388C15.4864 11.3241 16.4914 10.5209 17.1561 9.46062C17.8209 8.40035 18.106 7.14584 17.9649 5.90241C17.8238 4.65898 17.2647 3.50028 16.3793 2.61595C15.4939 1.73162 14.3345 1.17404 13.0908 1.03448C11.8472 0.894915 10.5931 1.18163 9.53366 1.8477C8.47423 2.51376 7.67227 3.51973 7.25905 4.70095C6.84582 5.88217 6.8458 7.16868 7.25899 8.34991L0.999863 14.5997L0.999863 18H4.40017L6.10033 16.2998V14.5997Z" stroke="white" stroke-linecap="round" stroke-linejoin="round"/>
<path d="M13.7509 6.09891C14.2204 6.09891 14.601 5.71831 14.601 5.24883C14.601 4.77934 14.2204 4.39875 13.7509 4.39875C13.2814 4.39875 12.9008 4.77934 12.9008 5.24883C12.9008 5.71831 13.2814 6.09891 13.7509 6.09891Z" stroke="white" stroke-linecap="round" stroke-linejoin="round"/>
</svg>
